<?xml version="1.0" encoding="utf-8"?>
<!-- Generator: Adobe Illustrator 16.0.0, SVG Export Plug-In . SVG Version: 6.00 Build 0)  -->
<!DOCTYPE svg PUBLIC "-//W3C//DTD SVG 1.1//EN" "http://www.w3.org/Graphics/SVG/1.1/DTD/svg11.dtd">
<svg version="1.1" id="Capa_1" xmlns="http://www.w3.org/2000/svg" xmlns:xlink="http://www.w3.org/1999/xlink" x="0px" y="0px"
	 width="839.221px" height="135.791px" viewBox="0 0.012 839.221 135.791" enable-background="new 0 0.012 839.221 135.791"
	 xml:space="preserve">
<g id="Capa_1_1_">
</g>
<g id="Capa_2_1_">
	<g>
		<g>
			<g>
				<path fill="#70B4E0" d="M46.064,70.713V50.228H25.111v7.531H38.38v9.079c-3.188,2.217-7.631,3.672-12.528,3.672
					c-10.597,0-17.643-7.345-17.643-17.464c0-9.417,7.27-17.126,16.825-17.126c6.599,0,10.527,1.994,14.377,5.159l5.037-6.375
					c-4.651-4.112-9.996-6.408-19.036-6.408c-15.64,0-24.888,11.266-24.888,24.888c0,14.277,8.801,24.943,25.034,24.943
					C34.745,78.128,41.606,74.724,46.064,70.713z"/>
				<path fill="#70B4E0" d="M88.851,44.576c0,5.328-4.127,8.732-10.604,8.732H64.993V35.921h13.176
					C84.868,35.921,88.851,38.878,88.851,44.576z M98.099,78.167L85.753,59.461c6.538-1.886,10.781-6.814,10.781-15.4
					c0-9.98-6.091-15.764-17.627-15.764H57.3v49.87h7.692V60.932h11.336l12.645,17.233h9.126V78.167z"/>
				<path fill="#70B4E0" d="M150.162,28.22h-7.685v28.485c0,9.132-4.828,13.806-12.684,13.806c-7.924,0-12.753-4.958-12.753-14.16
					v-28.13h-7.691v28.485c0,14.346,7.253,21.423,20.299,21.423c13.137,0,20.514-7.077,20.514-21.847V28.22L150.162,28.22z"/>
				<path fill="#70B4E0" d="M192.946,45.392c0,5.645-4.397,9.479-11.443,9.479h-10.834v-18.95h10.834
					C188.48,35.921,192.946,39.155,192.946,45.392z M200.632,45.169c0-10.611-6.331-16.872-18.365-16.872h-19.29v49.87h7.692V62.495
					h10.534C192.87,62.495,200.632,56.866,200.632,45.169z"/>
				<path fill="#70B4E0" d="M251.302,53.285c0,9.519-7.139,17.226-17.371,17.226c-10.235,0-17.52-7.854-17.52-17.364
					c0-9.518,7.138-17.226,17.372-17.226S251.302,43.767,251.302,53.285z M258.994,53.146c0-13.753-9.24-24.85-25.063-24.85
					c-15.833,0-25.213,11.235-25.213,24.988c0,13.754,9.233,24.843,25.065,24.843C249.608,78.128,258.994,66.9,258.994,53.146z"/>
			</g>
			<g>
				<path fill="#FFFFFF" d="M268.58,26.476h12.844l15.425,23.112l15.425-23.112h12.844v51.745h-14.267V52.354l-14.002,21.025h-0.297
					l-13.927-20.878V78.22H268.58V26.476L268.58,26.476z"/>
				<path fill="#FFFFFF" d="M394.695,26.558h14.148l22.061,28.122V26.558h14.191v51.745H430.99l-22.103-28.386v28.386h-14.192
					V26.558z"/>
				<path fill="#FFFFFF" d="M530.225,26.558h14.15l22.06,28.122V26.558h14.191v51.745H566.52l-22.101-28.386v28.386h-14.194V26.558z
					"/>
				<path fill="#FFFFFF" d="M454.628,26.476h18.564c17.188,0,27.157,10.645,27.157,25.577v0.148c0,14.932-10.106,26.02-27.434,26.02
					h-18.289L454.628,26.476L454.628,26.476z M473.399,65.506c7.975,0,13.271-4.73,13.271-13.083v-0.148
					c0-8.28-5.296-13.084-13.271-13.084h-4.662v26.316L473.399,65.506L473.399,65.506z"/>
				<path fill="#FFFFFF" d="M506.933,26.476h14.415v51.745h-14.415V26.476z"/>
				<path fill="#FFFFFF" d="M332.174,52.495v-0.147c0-14.858,11.976-26.907,27.942-26.907s27.795,11.901,27.795,26.759v0.147
					c0,14.858-11.976,26.907-27.942,26.907C344.002,79.255,332.174,67.354,332.174,52.495z M373.274,52.495v-0.147
					c0-7.466-5.396-13.971-13.307-13.971c-7.835,0-13.084,6.357-13.084,13.823v0.147c0,7.465,5.396,13.971,13.232,13.971
					C368.026,66.319,373.274,59.962,373.274,52.495z"/>
				<path fill="#FFFFFF" d="M587.16,52.495v-0.147c0-14.858,11.977-26.907,27.942-26.907c15.967,0,27.795,11.901,27.795,26.759
					v0.147c0,14.858-11.977,26.907-27.942,26.907S587.16,67.354,587.16,52.495z M628.26,52.495v-0.147
					c0-7.466-5.396-13.971-13.306-13.971c-7.835,0-13.084,6.357-13.084,13.823v0.147c0,7.465,5.396,13.971,13.231,13.971
					C623.013,66.319,628.26,59.962,628.26,52.495z"/>
			</g>
		</g>
		<g>
			<path fill="#DDDDDD" d="M130.738,111.163l-4.106-5.825h-3.677v5.825h-2.937V94.45h7.448c3.846,0,6.208,2.028,6.208,5.299
				c0,2.771-1.646,4.441-3.986,5.086l4.512,6.328H130.738z M127.229,97.124h-4.274v5.611h4.297c2.102,0,3.438-1.099,3.438-2.817
				C130.69,98.079,129.401,97.124,127.229,97.124z"/>
			<path fill="#DDDDDD" d="M149.621,97.075h-9.455v4.347h8.381v2.628h-8.381v4.488h9.575v2.625H137.23V94.45h12.392L149.621,97.075
				L149.621,97.075z"/>
			<path fill="#DDDDDD" d="M165.616,97.124h-9.504v4.562h8.429v2.673h-8.429v6.807h-2.938V94.45h12.44L165.616,97.124
				L165.616,97.124z"/>
			<path fill="#DDDDDD" d="M179.507,111.163l-4.105-5.825h-3.677v5.825h-2.938V94.45h7.449c3.845,0,6.208,2.028,6.208,5.299
				c0,2.771-1.647,4.441-3.988,5.086l4.513,6.328H179.507z M175.998,97.124h-4.272v5.611h4.298c2.101,0,3.438-1.099,3.438-2.817
				C179.46,98.079,178.17,97.124,175.998,97.124z"/>
			<path fill="#DDDDDD" d="M189.104,94.45v16.713h-2.938V94.45H189.104z"/>
			<path fill="#DDDDDD" d="M201.445,111.45c-5.229,0-8.667-3.726-8.667-8.619c0-4.705,3.582-8.668,8.619-8.668
				c2.913,0,4.704,0.813,6.423,2.269l-1.863,2.22c-1.289-1.097-2.554-1.789-4.68-1.789c-3.08,0-5.42,2.674-5.42,5.922
				c0,3.461,2.268,5.992,5.683,5.992c1.576,0,3.008-0.502,4.035-1.266v-3.129h-4.274v-2.553h7.115v7.019
				C206.771,110.256,204.406,111.45,201.445,111.45z"/>
			<path fill="#DDDDDD" d="M224.577,97.075h-9.455v4.347h8.381v2.628h-8.381v4.488h9.574v2.625h-12.511V94.45h12.391L224.577,97.075
				L224.577,97.075z"/>
			<path fill="#DDDDDD" d="M238.854,111.163l-4.106-5.825h-3.677v5.825h-2.938V94.45h7.45c3.845,0,6.208,2.028,6.208,5.299
				c0,2.771-1.646,4.441-3.986,5.086l4.513,6.328H238.854z M235.343,97.124h-4.272v5.611h4.297c2.101,0,3.438-1.099,3.438-2.817
				C238.806,98.079,237.517,97.124,235.343,97.124z"/>
			<path fill="#DDDDDD" d="M261.341,111.163h-3.104l-1.695-4.035h-7.902l-1.72,4.035h-3.009l7.354-16.834h2.722L261.341,111.163z
				 M252.579,97.841l-2.865,6.686h5.754L252.579,97.841z"/>
			<path fill="#DDDDDD" d="M270.889,111.45c-4.871,0-8.5-3.797-8.5-8.619c0-4.775,3.558-8.668,8.618-8.668
				c3.081,0,4.943,1.074,6.542,2.604l-1.887,2.174c-1.337-1.242-2.77-2.078-4.68-2.078c-3.199,0-5.516,2.625-5.516,5.922
				c0,3.295,2.316,5.968,5.516,5.968c2.054,0,3.367-0.834,4.8-2.171l1.886,1.908C275.926,110.303,274.017,111.45,270.889,111.45z"/>
			<path fill="#DDDDDD" d="M283.802,94.45v16.713h-2.937V94.45H283.802z"/>
			<path fill="#DDDDDD" d="M296.192,111.45c-5.133,0-8.715-3.893-8.715-8.619c0-4.728,3.63-8.668,8.763-8.668
				s8.714,3.893,8.714,8.619C304.954,107.51,301.325,111.45,296.192,111.45z M296.192,96.86c-3.318,0-5.635,2.65-5.635,5.922
				s2.362,5.969,5.683,5.969c3.319,0,5.635-2.648,5.635-5.92C301.875,99.559,299.51,96.86,296.192,96.86z M295.189,93.065
				l2.53-3.916l2.627,1.168l-2.913,2.748H295.189z"/>
			<path fill="#DDDDDD" d="M320.136,94.45h2.89v16.713h-2.46l-9.215-11.891v11.891h-2.89V94.45h2.723l8.954,11.556V94.45H320.136z"
				/>
			<path fill="#DDDDDD" d="M345.965,111.497l-2.22-2.269c-1.434,1.339-3.104,2.173-5.134,2.173c-3.104,0-5.444-1.861-5.444-4.799
				c0-2.173,1.267-3.725,3.56-4.703c-0.956-1.242-1.386-2.269-1.386-3.511c0-2.269,1.813-4.228,4.799-4.228
				c2.65,0,4.44,1.769,4.44,4.061c0,2.219-1.457,3.533-3.677,4.369l2.865,2.913c0.645-0.955,1.241-2.054,1.79-3.224l2.221,1.17
				c-0.668,1.338-1.409,2.65-2.269,3.82l2.628,2.674L345.965,111.497z M338.35,103.714c-1.554,0.668-2.222,1.695-2.222,2.793
				c0,1.434,1.17,2.459,2.793,2.459c1.146,0,2.197-0.548,3.152-1.455L338.35,103.714z M340.067,96.479
				c-1.194,0-1.981,0.837-1.981,2.029c0,0.86,0.333,1.479,1.266,2.507c1.719-0.621,2.627-1.384,2.627-2.626
				C341.979,97.22,341.19,96.479,340.067,96.479z"/>
			<path fill="#DDDDDD" d="M358.066,94.45h2.937v14.039h8.787v2.674h-11.724V94.45z"/>
			<path fill="#DDDDDD" d="M388.791,111.163h-3.103l-1.696-4.035h-7.903l-1.719,4.035h-3.007l7.353-16.834h2.723L388.791,111.163z
				 M380.028,97.841l-2.865,6.686h5.754L380.028,97.841z"/>
			<path fill="#DDDDDD" d="M401.084,94.45h3.176l-6.948,16.832h-2.578l-6.947-16.832h3.247l5.038,12.845L401.084,94.45z"/>
			<path fill="#DDDDDD" d="M420.685,111.163h-3.104l-1.695-4.035h-7.902l-1.72,4.035h-3.009l7.355-16.834h2.722L420.685,111.163z
				 M411.922,97.841l-2.865,6.686h5.754L411.922,97.841z"/>
			<path fill="#DDDDDD" d="M434.219,111.163l-4.105-5.825h-3.679v5.825h-2.936V94.45h7.449c3.844,0,6.206,2.028,6.206,5.299
				c0,2.771-1.646,4.441-3.987,5.086l4.514,6.328H434.219z M430.709,97.124h-4.273v5.611h4.299c2.102,0,3.438-1.099,3.438-2.817
				C434.171,98.079,432.881,97.124,430.709,97.124z"/>
			<path fill="#DDDDDD" d="M451.43,111.163l-4.105-5.825h-3.679v5.825h-2.937V94.45h7.449c3.845,0,6.209,2.028,6.209,5.299
				c0,2.771-1.647,4.441-3.988,5.086l4.513,6.328H451.43z M447.92,97.124h-4.274v5.611h4.299c2.103,0,3.438-1.099,3.438-2.817
				C451.382,98.079,450.093,97.124,447.92,97.124z"/>
			<path fill="#DDDDDD" d="M465.896,111.45c-5.133,0-8.715-3.893-8.715-8.619c0-4.728,3.629-8.668,8.764-8.668
				c5.134,0,8.714,3.893,8.714,8.619C474.658,107.51,471.029,111.45,465.896,111.45z M465.896,96.86
				c-3.317,0-5.635,2.65-5.635,5.922s2.363,5.969,5.684,5.969c3.317,0,5.635-2.648,5.635-5.92
				C471.579,99.559,469.214,96.86,465.896,96.86z"/>
			<path fill="#DDDDDD" d="M484.42,105.79h-3.319v5.373h-2.937V94.45h6.591c3.893,0,6.352,2.194,6.352,5.61
				C491.106,103.833,488.097,105.79,484.42,105.79z M484.515,97.124h-3.414v6.017h3.414c2.222,0,3.605-1.218,3.605-3.008
				C488.121,98.149,486.712,97.124,484.515,97.124z"/>
			<path fill="#DDDDDD" d="M508.389,111.163h-3.104l-1.695-4.035h-7.903l-1.718,4.035h-3.009l7.354-16.834h2.723L508.389,111.163z
				 M499.626,97.841l-2.865,6.686h5.755L499.626,97.841z"/>
			<path fill="#DDDDDD" d="M517.388,101.47c3.533,0.859,5.372,2.125,5.372,4.918c0,3.152-2.459,5.016-5.971,5.016
				c-2.553,0-4.965-0.885-6.971-2.676l1.768-2.101c1.599,1.385,3.199,2.173,5.277,2.173c1.813,0,2.959-0.836,2.959-2.125
				c0-1.219-0.668-1.862-3.772-2.579c-3.558-0.858-5.563-1.909-5.563-5.015c0-2.912,2.387-4.869,5.706-4.869
				c2.437,0,4.368,0.738,6.063,2.101l-1.575,2.222c-1.504-1.123-3.01-1.722-4.536-1.722c-1.72,0-2.723,0.886-2.723,2.007
				C513.424,100.133,514.188,100.706,517.388,101.47z"/>
		</g>
	</g>
	<rect x="678.93" y="0.561" fill="#70B4E0" width="3.909" height="135.816"/>
	<g>
		<g>
			<path fill="#FFFFFF" d="M749.005,78.852l8.985-8.761c5.397-5.269,9.422-9.401,12.343-13.277c0-0.043-0.001-0.087-0.001-0.131
				c0-11.517,0.64-22.465,4.921-30.772c-3.208-8.824-11.363-13.497-26.021-13.496c-14.334,0-23.094,3.071-29.806,6.484l9.441,18.202
				c4.209-2.048,11.035-4.096,16.382-4.096c7.965,0,9.897,2.502,9.897,8.19c0,4.664-2.048,7.167-11.944,16.951L720.336,80.67v17.063
				h58.132v-5.201c-3.212-3.744-5.181-8.396-6.368-13.682L749.005,78.852L749.005,78.852z"/>
			<path fill="#FFFFFF" d="M806.485,14.031c-18.068,0-26.301,6.464-30.016,16.741c-2.139,5.918-2.776,13.102-2.933,21.045
				c-0.03,1.594-0.043,3.216-0.043,4.867c0,8.722,0.49,16.113,1.987,22.169c0.731,2.955,1.712,5.59,2.985,7.906
				c4.558,8.277,12.964,12.46,28.018,12.46c30.369,0,32.642-16.842,32.642-42.536C839.126,32.516,836.722,14.031,806.485,14.031z
				 M806.485,80.312c-10.127,0-11.523-7.101-11.523-23.629c0-16.414,1.396-22.816,11.523-22.816
				c10.011,0,11.292,6.402,11.292,22.815C817.777,73.211,816.496,80.312,806.485,80.312z"/>
		</g>
		<g>
			<path fill="#FFFFFF" d="M743.114,107.393h4.768l6.757,16.859h-4.858l-0.836-2.169h-7.144l-0.835,2.169h-4.564L743.114,107.393z
				 M747.452,118.241l-2.079-5.332l-2.078,5.332H747.452z"/>
			<path fill="#FFFFFF" d="M760.533,107.509h5.017l6.53,8.855v-8.855h4.476v16.744h-4.314l-7.232-9.784v9.784h-4.475
				L760.533,107.509L760.533,107.509z"/>
			<path fill="#FFFFFF" d="M782.947,115.868c0-6.439,3.772-8.631,9.085-8.631c5.31,0,9.105,2.19,9.105,8.631
				c0,6.463-3.797,8.656-9.105,8.656C786.72,124.524,782.947,122.331,782.947,115.868z M796.391,115.96c0-2.6-0.88-4.43-4.358-4.43
				c-3.481,0-4.361,1.83-4.361,4.43c0,2.599,0.88,4.451,4.361,4.451C795.511,120.411,796.391,118.558,796.391,115.96z"/>
			<path fill="#FFFFFF" d="M805.813,122.174l2.351-3.367c1.672,1.152,3.797,1.831,6.034,1.831c3.186,0,3.32-0.452,3.32-1.379
				c0-0.836-1.106-1.039-3.479-1.333c-4.904-0.61-7.164-1.562-7.164-5.333c0-4,2.351-5.355,7.436-5.355
				c3.818,0,6.012,0.904,7.275,1.717l-2.531,3.64c-0.972-0.655-3.05-1.288-4.789-1.288c-2.441,0-2.734,0.362-2.734,1.174
				c0,0.949,1.197,1.086,3.706,1.401c4.18,0.543,6.915,1.289,6.915,5.151c0,3.414-1.718,5.471-7.819,5.471
				C810.604,124.502,807.621,123.575,805.813,122.174z"/>
			<path fill="#FFFFFF" d="M763.927,104.711c1.127-1.388,2.254-2.166,3.328-2.166c1.23,0,1.629,0.971,2.391,0.971
				c0.364,0,0.832-0.243,1.51-1.06l1.871,1.545c-1.109,1.367-2.255,2.164-3.328,2.164c-1.212,0-1.577-0.985-2.374-0.985
				c-0.363,0-0.85,0.242-1.525,1.073L763.927,104.711z"/>
		</g>
	</g>
</g>
</svg>
